<?xml version="1.0" ?><svg height="200" id="svg2" version="1.1" width="200" xmlns="http://www.w3.org/2000/svg" xmlns:cc="http://creativecommons.org/ns#" xmlns:dc="http://purl.org/dc/elements/1.1/" xmlns:inkscape="http://www.inkscape.org/namespaces/inkscape" xmlns:rdf="http://www.w3.org/1999/02/22-rdf-syntax-ns#" xmlns:sodipodi="http://sodipodi.sourceforge.net/DTD/sodipodi-0.dtd" xmlns:svg="http://www.w3.org/2000/svg"><defs id="defs4"><clipPath clipPathUnits="userSpaceOnUse" id="clipPath18"><path d="m 0,551.986 530.973,0 L 530.973,0 0,0 0,551.986 z" id="path20"/></clipPath><clipPath clipPathUnits="userSpaceOnUse" id="clipPath18-7"><path d="m 0,551.986 530.973,0 L 530.973,0 0,0 0,551.986 z" id="path20-4"/></clipPath></defs><g id="layer1" style="display:inline" transform="translate(0,-852.36218)"><path d="M 100 10 C 50.29437 10 10 50.29437 10 100 C 10 149.70567 50.29437 190 100 190 C 100.75044 190 101.47964 189.916 102.21875 189.875 C 102.47878 189.861 102.73968 189.85675 103 189.84375 C 103.93792 189.79775 104.87645 189.7477 105.8125 189.6875 C 106.77628 189.62564 107.70326 189.44204 108.65625 189.34375 C 110.71955 189.13094 112.79017 188.94084 114.8125 188.59375 C 118.22137 188.00875 121.57698 187.2587 124.84375 186.3125 C 130.51682 184.6692 135.96208 182.5305 141.125 179.875 C 159.21425 170.5709 173.56721 155.26452 181.90625 136.65625 C 181.96935 136.51539 182.06257 136.39124 182.125 136.25 C 183.82639 132.40089 185.3428 128.45478 186.5 124.34375 C 187.17583 121.94282 187.66632 119.4721 188.15625 117 C 188.31905 116.17855 188.58265 115.394 188.71875 114.5625 C 189.03001 112.66084 189.12431 110.69026 189.3125 108.75 C 189.48647 106.95638 189.76272 105.19563 189.84375 103.375 C 189.89375 102.25049 190 101.13693 190 100 C 190 96.34978 189.70363 92.78648 189.28125 89.25 C 189.19555 88.53225 189.03998 87.83748 188.9375 87.125 C 182.66932 43.54488 145.31458 10 100 10 z " id="path6904" style="fill:#e1e8ed;fill-opacity:1;stroke:none" transform="translate(0,852.36218)"/><path d="M 100 10 C 50.29437 10 10 50.29437 10 100 C 10 149.70567 50.29437 190 100 190 C 100.75044 190 101.47964 189.916 102.21875 189.875 C 102.47878 189.861 102.73968 189.85675 103 189.84375 C 103.93792 189.79775 104.87645 189.7477 105.8125 189.6875 C 106.77628 189.62564 107.70326 189.44204 108.65625 189.34375 L 50.78125 131.46875 L 54.625 128.3125 C 54.625 128.3125 60.396411 115.76549 60.71875 114.5625 C 60.799335 114.26175 62.259468 114.11889 64.40625 114.0625 C 66.553032 114.00611 69.396666 114.04981 72.21875 114.125 C 77.862919 114.27537 83.46875 114.5625 83.46875 114.5625 L 105.09375 102.0625 L 100.15625 97.125 L 100.15625 96.625 L 104.125 83.3125 L 148.5625 68 L 189.3125 108.75 C 189.48647 106.95638 189.76272 105.19563 189.84375 103.375 C 189.89375 102.25049 190 101.13693 190 100 C 190 96.34978 189.70363 92.78648 189.28125 89.25 C 189.19555 88.53225 189.03998 87.83748 188.9375 87.125 C 182.66932 43.54488 145.31458 10 100 10 z " id="path6770" style="fill:#e1e8ed;fill-opacity:1;stroke:none" transform="translate(0,852.36218)"/><path d="" id="path6013" style="fill:#000000"/><path d="" id="path6011" style="fill:#000000"/><path d="" id="path6009" style="fill:#000000"/></g><g id="layer14" style="display:inline"><path d="m 189.06943,108.49231 -40.74999,-40.750012 -44.43749,15.3125 -3.968762,13.312505 0,0.5 4.937512,4.937507 -21.625008,12.5 c 0,0 -5.60584,-0.28713 -11.250006,-0.4375 -2.82208,-0.0752 -5.66571,-0.11889 -7.8125,-0.0625 -2.14678,0.0564 -3.60691,0.19925 -3.6875,0.5 -0.32233,1.20299 -6.09375,13.75 -6.09375,13.75 l -3.84375,3.15625 57.875014,57.87498 c 2.06329,-0.2128 4.13391,-0.4029 6.15624,-0.75 3.40887,-0.585 6.76448,-1.3351 10.03125,-2.2813 5.67307,-1.6433 11.11833,-3.782 16.28125,-6.4375 18.08924,-9.3041 32.4422,-24.61039 40.78124,-43.21869 0.0631,-0.1409 0.15632,-0.265 0.21875,-0.4062 1.70139,-3.84915 3.2178,-7.79526 4.375,-11.90629 0.67583,-2.40093 1.16632,-4.87165 1.65625,-7.34375 0.1628,-0.82145 0.4264,-1.606 0.5625,-2.4375 0.31126,-1.90166 0.40556,-3.87224 0.59375,-5.8125 z" id="path6906" style="opacity:0.1;fill:#000000;fill-opacity:1;stroke:none;display:inline"/></g><g id="layer13" style="display:inline"><path d="m 54.84375,67.12499 c -1.31851,0.0256 -2.50762,0.32267 -3.375,0.84375 l 48.6875,29.15625 48.4375,-29.125 c -0.80772,-0.50236 -1.92664,-0.77637 -3.15625,-0.84375 l -90.59375,-0.0312 z m -3.375,5.75 C 50.565,73.42532 50,74.18786 50,75.03124 l 0,54.8125 c 0,1.68677 2.23,3.03127 5,3.03127 l 90,0 c 2.77,0 5,-1.3445 5,-3.03127 l 0,-54.8125 c 0,-0.8243 -0.53837,-1.57786 -1.40625,-2.125 l -48.4375,29.5 -48.6875,-29.53125 z" id="path6875" style="fill:#e64a19;fill-opacity:0.94117647;stroke:none;display:inline"/></g></svg>