<?xml version="1.0" ?><!DOCTYPE svg  PUBLIC '-//W3C//DTD SVG 1.0//EN'  'http://www.w3.org/TR/2001/REC-SVG-20010904/DTD/svg10.dtd'><svg height="32" style="overflow:visible;enable-background:new 0 0 32 32" viewBox="0 0 32 32" width="32" xml:space="preserve" xmlns="http://www.w3.org/2000/svg" xmlns:xlink="http://www.w3.org/1999/xlink"><g><g id="Twitter_1_"><g id="Twitter"><circle cx="16" cy="16" id="BG" r="16" style="fill:#5FCCFF;"/><path d="M22.1,12.1c0.7-0.4,1.2-1.1,1.4-1.8c-0.6,0.4-1.3,0.6-2.1,0.8        c-0.6-0.6-1.5-1-2.4-1c-1.8,0-3.3,1.5-3.3,3.3c0,0.3,0,0.5,0.1,0.7c-2.7-0.1-5.2-1.4-6.8-3.4c-0.3,0.5-0.4,1.1-0.4,1.7        c0,1.1,0.6,2.1,1.5,2.7c-0.5,0-1-0.2-1.5-0.4v0c0,1.6,1.1,2.9,2.6,3.2C11,17.9,10.7,18,10.4,18c-0.2,0-0.4,0-0.6-0.1        c0.4,1.3,1.6,2.3,3.1,2.3c-1.1,0.9-2.5,1.4-4.1,1.4c-0.3,0-0.5,0-0.8,0c1.4,0.9,3,1.4,4.7,1.5h0.8c5.7-0.3,8.9-5.1,8.9-9.3        c0-0.1,0-0.3,0-0.4c0.6-0.5,1.2-1,1.6-1.7v0C23.4,11.8,22.8,12,22.1,12.1z" id="Bird" style="fill:#F4F4F4;"/></g></g></g></svg>